<svg width="201" height="63" viewBox="0 0 201 63" fill="none" xmlns="http://www.w3.org/2000/svg">
<path d="M76.636 27.794C76.356 27.794 76.02 27.766 75.628 27.71C75.236 27.626 75.026 27.374 74.998 26.954C74.998 26.898 75.096 26.758 75.292 26.534C75.516 26.31 75.74 26.086 75.964 25.862C76.216 25.638 76.37 25.498 76.426 25.442C76.51 25.386 76.706 25.232 77.014 24.98C77.35 24.728 77.574 24.686 77.686 24.854C77.714 24.882 77.728 25.078 77.728 25.442V26.03C77.728 26.086 77.7 26.142 77.644 26.198C77.616 26.198 77.546 26.226 77.434 26.282C77.35 26.31 77.308 26.338 77.308 26.366L77.35 26.408C77.406 26.436 77.448 26.492 77.476 26.576C77.532 26.66 77.546 26.73 77.518 26.786C77.406 26.982 77.266 27.206 77.098 27.458C76.93 27.682 76.776 27.794 76.636 27.794ZM72.73 38.63C72.618 38.63 72.38 38.588 72.016 38.504C71.68 38.42 71.456 38.35 71.344 38.294C71.064 38.098 70.868 37.93 70.756 37.79C70.644 37.65 70.588 37.356 70.588 36.908C70.588 36.096 70.77 35.298 71.134 34.514C71.526 33.702 71.876 32.932 72.184 32.204C72.24 32.148 72.24 32.106 72.184 32.078V31.994C72.1 31.714 72.17 31.392 72.394 31.028C72.618 30.636 72.884 30.272 73.192 29.936C73.5 29.6 73.738 29.376 73.906 29.264C74.046 29.264 74.298 29.292 74.662 29.348C75.026 29.376 75.376 29.432 75.712 29.516C76.048 29.6 76.216 29.74 76.216 29.936C76.216 29.964 76.174 30.034 76.09 30.146C76.006 30.258 75.908 30.384 75.796 30.524L75.46 30.902C75.348 31.014 75.292 31.084 75.292 31.112C75.04 31.56 74.704 32.106 74.284 32.75C73.864 33.394 73.472 34.052 73.108 34.724C72.856 35.172 72.646 35.606 72.478 36.026C72.338 36.418 72.268 36.768 72.268 37.076C72.268 37.328 72.324 37.51 72.436 37.622C72.744 37.566 73.066 37.37 73.402 37.034C73.766 36.698 74.06 36.39 74.284 36.11H74.494C74.494 36.39 74.396 36.628 74.2 36.824L74.074 36.95C73.934 37.202 73.752 37.552 73.528 38C73.332 38.42 73.066 38.63 72.73 38.63ZM77.9193 48.5C77.3593 48.5 76.7013 48.36 75.9453 48.08C75.1893 47.828 74.5313 47.45 73.9713 46.946C73.3833 46.47 73.0613 45.924 73.0053 45.308C73.0053 45.252 73.0193 45.21 73.0473 45.182C73.0753 45.042 73.0893 44.902 73.0893 44.762C73.0613 44.65 73.0613 44.538 73.0893 44.426C73.0893 44.286 73.1033 44.132 73.1313 43.964C73.1593 43.824 73.1733 43.67 73.1733 43.502C73.1733 43.446 73.1733 43.376 73.1733 43.292C73.1453 43.236 73.1313 43.166 73.1313 43.082C73.1313 42.858 73.1873 42.676 73.2993 42.536L73.4673 42.452H73.5933C73.6213 42.788 73.6353 43.04 73.6353 43.208C73.6353 43.404 73.6913 43.656 73.8033 43.964L74.0553 44.636L74.2653 45.014L74.3073 45.182C74.3633 45.322 74.4473 45.462 74.5593 45.602C74.6713 45.77 74.7833 45.924 74.8953 46.064C75.0913 46.316 75.2313 46.554 75.3153 46.778C75.7353 47.142 76.1273 47.394 76.4913 47.534C76.8553 47.702 77.3313 47.786 77.9193 47.786C78.4233 47.786 78.9973 47.576 79.6413 47.156C80.3133 46.736 80.8173 46.358 81.1533 46.022C81.5453 45.63 81.8813 45.196 82.1613 44.72C82.4693 44.272 82.7633 43.81 83.0433 43.334C84.0233 41.654 84.8073 39.974 85.3953 38.294C85.9833 36.614 86.4593 34.836 86.8233 32.96C86.7113 33.156 86.5853 33.338 86.4453 33.506C86.3053 33.674 86.1653 33.828 86.0253 33.968C85.9133 34.136 85.7873 34.304 85.6473 34.472C85.5073 34.64 85.3673 34.836 85.2273 35.06H85.1013V35.186C84.7653 35.326 84.4153 35.606 84.0513 36.026C83.7153 36.446 83.3933 36.768 83.0853 36.992C82.7213 37.272 82.4833 37.44 82.3713 37.496C82.2873 37.552 82.2313 37.594 82.2033 37.622C82.2033 37.622 82.1473 37.706 82.0353 37.874C81.8393 37.902 81.6573 37.958 81.4893 38.042C81.3493 38.154 81.1813 38.266 80.9853 38.378C80.8173 38.462 80.6213 38.546 80.3973 38.63C80.1733 38.714 79.9073 38.756 79.5993 38.756C79.3193 38.756 78.9273 38.588 78.4233 38.252C77.9193 37.944 77.5693 37.678 77.3733 37.454C77.3173 37.37 77.2193 37.3 77.0793 37.244C76.9393 37.16 76.8273 37.062 76.7433 36.95C76.6313 36.81 76.5053 36.614 76.3653 36.362C76.2253 36.11 76.1553 35.886 76.1553 35.69C76.1273 35.522 76.1553 35.242 76.2393 34.85C76.3233 34.43 76.4353 33.996 76.5753 33.548C76.7433 33.072 76.9253 32.666 77.1213 32.33C77.3173 31.966 77.5133 31.756 77.7093 31.7C77.7653 31.644 77.8493 31.588 77.9613 31.532C78.0733 31.448 78.1293 31.378 78.1293 31.322V31.28L77.9613 31.322C78.0173 31.098 78.1993 30.776 78.5073 30.356C78.8153 29.936 79.1933 29.502 79.6413 29.054C80.0893 28.578 80.5093 28.158 80.9013 27.794C81.3213 27.43 81.6433 27.206 81.8673 27.122C82.2033 26.954 82.5953 26.786 83.0433 26.618C83.4913 26.422 83.9253 26.254 84.3453 26.114V26.156C84.5693 26.1 84.7373 26.072 84.8493 26.072C85.0453 26.072 85.2973 26.128 85.6053 26.24C85.9413 26.324 86.2073 26.394 86.4033 26.45C86.7113 26.534 87.0613 26.716 87.4533 26.996C87.8733 27.248 88.2233 27.542 88.5033 27.878C88.8113 28.214 88.9653 28.55 88.9653 28.886V29.012C88.9653 29.152 88.9373 29.292 88.8813 29.432C88.8533 29.572 88.8393 29.712 88.8393 29.852C88.9513 29.908 89.1473 30.02 89.4273 30.188C89.7073 30.328 89.8473 30.468 89.8473 30.608C89.8753 30.776 89.8473 31.084 89.7633 31.532C89.7073 31.952 89.6373 32.4 89.5533 32.876C89.4693 33.324 89.3853 33.66 89.3013 33.884C89.2173 34.164 89.1473 34.472 89.0913 34.808C89.0633 35.116 89.0073 35.424 88.9233 35.732C88.8113 36.096 88.6713 36.446 88.5033 36.782C88.3353 37.118 88.2093 37.468 88.1253 37.832L87.9993 38.336C87.9433 38.532 87.8593 38.728 87.7473 38.924C87.6633 39.12 87.5793 39.33 87.4953 39.554C87.4113 39.75 87.2573 40.016 87.0333 40.352C86.8373 40.688 86.7253 40.926 86.6973 41.066C86.6133 41.402 86.4593 41.71 86.2353 41.99C86.0393 42.27 85.8293 42.522 85.6053 42.746C85.5773 42.942 85.4093 43.25 85.1013 43.67C84.8213 44.09 84.6533 44.342 84.5973 44.426C84.5133 44.454 84.4713 44.496 84.4713 44.552C84.4433 44.608 84.3313 44.762 84.1353 45.014C83.9673 45.266 83.8553 45.42 83.7993 45.476C83.7713 45.588 83.7153 45.672 83.6313 45.728C83.5473 45.784 83.4773 45.84 83.4213 45.896C83.2813 46.008 83.1553 46.148 83.0433 46.316C82.9313 46.484 82.8053 46.638 82.6653 46.778C82.6093 46.806 82.5253 46.834 82.4133 46.862C82.3013 46.918 82.1753 46.988 82.0353 47.072C81.4193 47.436 80.7613 47.758 80.0613 48.038C79.3893 48.346 78.6753 48.5 77.9193 48.5ZM78.8853 37.706C79.0533 37.706 79.2633 37.678 79.5153 37.622C79.7953 37.538 79.9913 37.44 80.1033 37.328L80.1453 37.286C80.2013 37.23 80.2573 37.202 80.3133 37.202C80.8453 36.894 81.3213 36.572 81.7413 36.236C82.1613 35.9 82.5953 35.536 83.0433 35.144C83.0993 35.088 83.1553 35.032 83.2113 34.976C83.2953 34.892 83.3653 34.822 83.4213 34.766L83.7993 34.346C83.9393 34.206 84.0793 34.066 84.2193 33.926C84.3593 33.786 84.5133 33.674 84.6813 33.59L84.7233 33.548C85.0313 33.24 85.3253 32.946 85.6053 32.666C85.8853 32.358 86.1373 32.036 86.3613 31.7C86.4173 31.616 86.4733 31.532 86.5293 31.448C86.5853 31.336 86.6413 31.238 86.6973 31.154C86.8373 30.986 86.9633 30.832 87.0753 30.692C87.2153 30.552 87.3413 30.412 87.4533 30.272C87.4813 30.272 87.4953 30.244 87.4953 30.188C87.5513 30.132 87.5933 30.076 87.6213 30.02C87.6493 29.964 87.6773 29.922 87.7053 29.894C87.7613 29.838 87.8453 29.796 87.9573 29.768C88.0693 29.74 88.1673 29.712 88.2513 29.684C88.2233 29.432 88.0833 29.068 87.8313 28.592C87.6073 28.088 87.4113 27.794 87.2433 27.71C87.1313 27.654 86.9633 27.612 86.7393 27.584C86.5433 27.556 86.3753 27.542 86.2353 27.542L85.6053 27.668C85.1013 27.78 84.6253 27.99 84.1773 28.298C83.7573 28.578 83.3373 28.872 82.9173 29.18L82.0353 29.81C81.7833 30.006 81.5593 30.23 81.3633 30.482C81.1673 30.706 80.9433 30.93 80.6913 31.154C80.5793 31.266 80.4953 31.406 80.4393 31.574C80.3833 31.714 80.2993 31.854 80.1873 31.994C79.2913 33.002 78.6613 34.136 78.2973 35.396C78.2413 35.592 78.1853 35.788 78.1293 35.984C78.0733 36.18 78.0453 36.39 78.0453 36.614C78.0453 36.894 78.1013 37.146 78.2133 37.37C78.3533 37.594 78.5773 37.706 78.8853 37.706ZM92.3968 37.496C92.2008 37.496 91.9628 37.412 91.6828 37.244C91.4308 37.076 91.2908 36.88 91.2628 36.656C91.2348 36.124 91.3188 35.48 91.5148 34.724C91.7388 33.94 92.0188 33.128 92.3548 32.288C92.6908 31.448 93.0408 30.664 93.4048 29.936C93.7688 29.18 94.0768 28.564 94.3288 28.088C94.4688 27.808 94.5808 27.542 94.6648 27.29C94.7768 27.01 94.9308 26.744 95.1268 26.492C95.3508 26.492 95.6308 26.548 95.9668 26.66C96.3308 26.772 96.6528 26.912 96.9328 27.08C97.2408 27.248 97.3948 27.444 97.3948 27.668C97.3948 27.92 97.2408 28.2 96.9328 28.508C96.6528 28.788 96.4288 29.026 96.2608 29.222C95.6728 29.894 95.0708 30.608 94.4548 31.364C93.8668 32.092 93.4048 32.876 93.0688 33.716C92.9848 33.912 92.9148 34.108 92.8588 34.304C92.8308 34.5 92.7608 34.682 92.6488 34.85C92.6208 34.934 92.5788 35.018 92.5228 35.102C92.4668 35.186 92.4388 35.284 92.4388 35.396L92.3968 35.858C92.6208 35.606 92.9708 35.2 93.4468 34.64C93.9508 34.08 94.4828 33.492 95.0428 32.876C95.6308 32.232 96.1768 31.672 96.6808 31.196C97.1848 30.72 97.5348 30.454 97.7308 30.398C97.8428 30.342 97.9548 30.314 98.0668 30.314C98.5708 30.314 99.0468 30.482 99.4948 30.818C99.9708 31.126 100.223 31.49 100.251 31.91C100.251 32.022 100.223 32.204 100.167 32.456C100.139 32.708 100.111 32.904 100.083 33.044C100.055 33.324 100.013 33.632 99.9568 33.968C99.9288 34.276 99.9148 34.598 99.9148 34.934C99.9148 35.438 99.9988 35.872 100.167 36.236C100.335 36.572 100.643 36.74 101.091 36.74C101.203 36.684 101.329 36.642 101.469 36.614C101.637 36.558 101.777 36.53 101.889 36.53C102.029 36.53 102.127 36.614 102.183 36.782C102.183 36.95 102.085 37.09 101.889 37.202C101.693 37.314 101.525 37.37 101.385 37.37H100.839C100.643 37.37 100.461 37.37 100.293 37.37C100.125 37.342 99.9568 37.3 99.7888 37.244C99.5088 37.188 99.2428 37.062 98.9908 36.866C98.7388 36.67 98.5428 36.39 98.4028 36.026C98.2628 35.606 98.1368 35.242 98.0248 34.934C97.9408 34.626 97.8988 34.248 97.8988 33.8V32.624C97.8988 32.428 97.8988 32.246 97.8988 32.078C97.9268 31.91 97.9268 31.784 97.8988 31.7C97.6468 31.784 97.3808 31.994 97.1008 32.33C96.8208 32.666 96.5968 32.932 96.4288 33.128C96.3168 33.24 96.2188 33.31 96.1348 33.338L96.0088 33.464C95.8968 33.576 95.7568 33.744 95.5888 33.968C95.4208 34.164 95.2668 34.332 95.1268 34.472C95.0428 34.556 94.9728 34.612 94.9168 34.64L94.7068 34.808L94.4128 35.102C94.2448 35.41 94.0488 35.69 93.8248 35.942C93.6288 36.166 93.4328 36.432 93.2368 36.74C93.1808 36.796 93.1528 36.838 93.1528 36.866L93.0688 37.034C92.9848 37.174 92.9008 37.286 92.8168 37.37C92.7328 37.454 92.5928 37.496 92.3968 37.496ZM108.71 27.794C108.43 27.794 108.094 27.766 107.702 27.71C107.31 27.626 107.1 27.374 107.072 26.954C107.072 26.898 107.17 26.758 107.366 26.534C107.59 26.31 107.814 26.086 108.038 25.862C108.29 25.638 108.444 25.498 108.5 25.442C108.584 25.386 108.78 25.232 109.088 24.98C109.424 24.728 109.648 24.686 109.76 24.854C109.788 24.882 109.802 25.078 109.802 25.442V26.03C109.802 26.086 109.774 26.142 109.718 26.198C109.69 26.198 109.62 26.226 109.508 26.282C109.424 26.31 109.382 26.338 109.382 26.366L109.424 26.408C109.48 26.436 109.522 26.492 109.55 26.576C109.606 26.66 109.62 26.73 109.592 26.786C109.48 26.982 109.34 27.206 109.172 27.458C109.004 27.682 108.85 27.794 108.71 27.794ZM104.804 38.63C104.692 38.63 104.454 38.588 104.09 38.504C103.754 38.42 103.53 38.35 103.418 38.294C103.138 38.098 102.942 37.93 102.83 37.79C102.718 37.65 102.662 37.356 102.662 36.908C102.662 36.096 102.844 35.298 103.208 34.514C103.6 33.702 103.95 32.932 104.258 32.204C104.314 32.148 104.314 32.106 104.258 32.078V31.994C104.174 31.714 104.244 31.392 104.468 31.028C104.692 30.636 104.958 30.272 105.266 29.936C105.574 29.6 105.812 29.376 105.98 29.264C106.12 29.264 106.372 29.292 106.736 29.348C107.1 29.376 107.45 29.432 107.786 29.516C108.122 29.6 108.29 29.74 108.29 29.936C108.29 29.964 108.248 30.034 108.164 30.146C108.08 30.258 107.982 30.384 107.87 30.524L107.534 30.902C107.422 31.014 107.366 31.084 107.366 31.112C107.114 31.56 106.778 32.106 106.358 32.75C105.938 33.394 105.546 34.052 105.182 34.724C104.93 35.172 104.72 35.606 104.552 36.026C104.412 36.418 104.342 36.768 104.342 37.076C104.342 37.328 104.398 37.51 104.51 37.622C104.818 37.566 105.14 37.37 105.476 37.034C105.84 36.698 106.134 36.39 106.358 36.11H106.568C106.568 36.39 106.47 36.628 106.274 36.824L106.148 36.95C106.008 37.202 105.826 37.552 105.602 38C105.406 38.42 105.14 38.63 104.804 38.63ZM112.346 41.234C112.15 41.234 111.87 41.136 111.506 40.94C111.17 40.772 110.932 40.632 110.792 40.52C110.316 40.044 110.078 39.33 110.078 38.378C110.078 37.678 110.176 36.964 110.372 36.236C110.568 35.48 110.792 34.78 111.044 34.136C111.296 33.464 111.506 32.946 111.674 32.582C111.73 32.498 111.786 32.386 111.842 32.246C111.898 32.078 111.982 31.896 112.094 31.7C112.234 31.364 112.402 31.042 112.598 30.734L112.052 30.902H111.842C111.562 31.07 111.254 31.196 110.918 31.28C110.61 31.336 110.302 31.406 109.994 31.49C109.658 31.574 109.336 31.7 109.028 31.868C108.72 32.008 108.412 32.148 108.104 32.288C108.104 32.316 108.062 32.33 107.978 32.33C107.838 32.33 107.712 32.26 107.6 32.12C107.488 31.952 107.432 31.812 107.432 31.7C107.432 31.616 107.6 31.518 107.936 31.406C108.244 31.266 108.622 31.126 109.07 30.986C109.546 30.818 109.98 30.678 110.372 30.566C110.792 30.426 111.072 30.342 111.212 30.314C111.436 30.258 111.632 30.202 111.8 30.146C111.968 30.09 112.136 30.034 112.304 29.978V29.936H112.472C112.696 29.936 112.864 29.894 112.976 29.81C113.228 29.25 113.62 28.522 114.152 27.626C114.684 26.702 115.272 25.89 115.916 25.19C116.056 25.05 116.126 24.882 116.126 24.686C116.154 24.49 116.238 24.308 116.378 24.14C116.602 23.916 116.784 23.734 116.924 23.594C117.092 23.454 117.316 23.3 117.596 23.132C117.764 23.16 118.044 23.258 118.436 23.426C118.828 23.594 119.192 23.776 119.528 23.972C119.892 24.168 120.074 24.35 120.074 24.518C120.074 24.602 119.934 24.756 119.654 24.98C119.374 25.176 119.08 25.372 118.772 25.568C118.464 25.764 118.254 25.904 118.142 25.988L117.848 26.072C117.512 26.352 117.204 26.646 116.924 26.954C116.644 27.262 116.35 27.556 116.042 27.836C115.874 28.004 115.734 28.2 115.622 28.424C115.538 28.62 115.412 28.802 115.244 28.97V29.18C115.16 29.236 115.09 29.306 115.034 29.39C115.79 29.334 116.378 29.362 116.798 29.474C117.246 29.558 117.694 29.796 118.142 30.188C118.198 30.244 118.226 30.314 118.226 30.398C118.226 30.482 118.184 30.524 118.1 30.524H117.932V30.482L117.89 30.524C117.218 30.356 116.574 30.272 115.958 30.272C115.706 30.272 115.468 30.286 115.244 30.314C115.02 30.342 114.824 30.37 114.656 30.398C114.656 30.398 114.572 30.524 114.404 30.776C114.236 31 114.068 31.238 113.9 31.49C113.732 31.714 113.648 31.854 113.648 31.91C113.592 31.994 113.48 32.19 113.312 32.498C113.172 32.806 113.032 33.128 112.892 33.464C112.808 33.632 112.724 33.8 112.64 33.968C112.584 34.108 112.528 34.234 112.472 34.346L112.262 34.724C112.262 34.92 112.22 35.13 112.136 35.354C112.08 35.55 112.024 35.732 111.968 35.9H111.926V35.984C111.926 36.152 111.884 36.334 111.8 36.53C111.744 36.698 111.688 36.852 111.632 36.992C111.492 37.636 111.422 38.238 111.422 38.798C111.422 38.938 111.422 39.078 111.422 39.218C111.422 39.358 111.436 39.498 111.464 39.638C111.52 39.834 111.576 40.002 111.632 40.142C111.716 40.282 111.842 40.394 112.01 40.478C112.094 40.478 112.164 40.492 112.22 40.52L112.556 40.562C112.892 40.618 113.06 40.702 113.06 40.814C113.06 41.01 112.962 41.122 112.766 41.15C112.598 41.206 112.458 41.234 112.346 41.234ZM121.41 38.294C120.906 38.294 120.36 38.196 119.772 38C119.212 37.804 118.722 37.51 118.302 37.118C117.91 36.726 117.686 36.25 117.63 35.69C117.63 35.55 117.63 35.41 117.63 35.27C117.658 35.13 117.658 35.004 117.63 34.892C117.63 34.808 117.546 34.724 117.378 34.64L117.252 34.514C117.14 34.458 117.028 34.388 116.916 34.304C116.804 34.192 116.748 34.066 116.748 33.926C116.832 33.898 116.902 33.884 116.958 33.884C117.098 33.884 117.224 33.898 117.336 33.926C117.476 33.954 117.602 33.968 117.714 33.968C117.686 33.968 117.7 33.912 117.756 33.8C117.756 33.744 117.77 33.688 117.798 33.632C117.826 33.548 117.854 33.492 117.882 33.464C117.91 33.464 117.952 33.366 118.008 33.17C118.064 32.946 118.106 32.82 118.134 32.792C118.526 31.588 119.058 30.566 119.73 29.726C120.43 28.858 121.382 28.214 122.586 27.794C122.698 27.766 122.796 27.752 122.88 27.752C122.992 27.724 123.104 27.71 123.216 27.71C123.44 27.71 123.734 27.794 124.098 27.962C124.462 28.102 124.784 28.298 125.064 28.55C125.372 28.774 125.54 29.012 125.568 29.264C125.568 29.376 125.568 29.474 125.568 29.558C125.596 29.642 125.61 29.74 125.61 29.852C125.61 30.02 125.568 30.216 125.484 30.44L125.232 30.566C125.176 30.678 125.12 30.762 125.064 30.818L124.812 31.112C124.588 31.336 124.504 31.49 124.56 31.574L124.476 31.616C124.476 31.616 124.476 31.63 124.476 31.658C124.476 31.658 124.462 31.658 124.434 31.658L124.476 31.616L124.434 31.658V31.7L124.224 31.742C124.112 31.826 124.014 31.924 123.93 32.036C123.846 32.12 123.762 32.218 123.678 32.33C123.258 32.778 122.712 33.17 122.04 33.506C121.368 33.814 120.752 34.094 120.192 34.346C120.108 34.374 119.982 34.416 119.814 34.472C119.674 34.5 119.576 34.556 119.52 34.64C119.408 34.78 119.338 34.962 119.31 35.186C119.282 35.41 119.268 35.62 119.268 35.816C119.324 36.152 119.408 36.474 119.52 36.782C119.66 37.09 119.94 37.244 120.36 37.244H120.738C120.878 37.244 121.018 37.23 121.158 37.202C121.326 37.174 121.494 37.146 121.662 37.118L121.956 36.95L121.998 36.992C122.166 36.936 122.46 36.81 122.88 36.614C123.3 36.418 123.706 36.222 124.098 36.026C124.49 35.802 124.728 35.648 124.812 35.564L124.854 35.522L124.896 35.438L125.022 35.312C125.526 34.948 126.016 34.64 126.492 34.388C126.968 34.108 127.43 33.744 127.878 33.296L127.962 33.38H128.088C128.06 33.576 127.99 33.73 127.878 33.842C127.766 33.926 127.64 34.038 127.5 34.178L127.374 34.388C127.038 34.92 126.52 35.452 125.82 35.984C125.148 36.516 124.532 36.964 123.972 37.328C123.776 37.44 123.58 37.58 123.384 37.748C123.188 37.888 122.964 38 122.712 38.084C122.236 38.224 121.802 38.294 121.41 38.294ZM120.066 33.086C120.234 33.086 120.346 33.086 120.402 33.086C120.486 33.058 120.598 33.03 120.738 33.002C121.298 32.694 121.816 32.33 122.292 31.91C122.796 31.49 123.272 31.07 123.72 30.65C123.776 30.454 123.916 30.286 124.14 30.146L124.308 30.02C124.364 29.964 124.406 29.908 124.434 29.852C124.49 29.796 124.518 29.74 124.518 29.684C124.546 29.656 124.532 29.558 124.476 29.39L124.434 29.18V29.096C124.35 29.068 124.238 29.054 124.098 29.054C123.902 29.138 123.706 29.264 123.51 29.432C123.314 29.6 123.104 29.698 122.88 29.726C122.768 29.894 122.53 30.118 122.166 30.398C121.97 30.566 121.774 30.734 121.578 30.902C121.41 31.042 121.298 31.14 121.242 31.196C121.046 31.392 120.808 31.7 120.528 32.12C120.248 32.512 120.094 32.834 120.066 33.086ZM129.903 38.168C129.791 38.168 129.609 38.098 129.357 37.958C129.133 37.79 129.021 37.636 129.021 37.496C129.021 37.412 129.119 37.258 129.315 37.034C129.511 36.81 129.721 36.586 129.945 36.362C130.197 36.138 130.365 35.998 130.449 35.942C130.813 36.026 130.995 36.222 130.995 36.53C130.995 36.866 130.827 37.23 130.491 37.622C130.183 37.986 129.987 38.168 129.903 38.168ZM133.155 48.794C133.015 48.794 132.875 48.752 132.735 48.668C132.315 48.64 131.937 48.444 131.601 48.08C131.237 47.744 130.957 47.352 130.761 46.904C130.537 46.456 130.411 46.092 130.383 45.812C130.355 45.56 130.369 45.308 130.425 45.056C130.453 44.804 130.481 44.552 130.509 44.3C130.649 44.16 130.733 43.978 130.761 43.754C130.761 43.558 130.775 43.362 130.803 43.166C130.943 42.634 131.027 42.326 131.055 42.242C131.083 42.158 131.139 42.06 131.223 41.948C131.279 41.864 131.391 41.57 131.559 41.066L131.601 40.982C131.601 40.926 131.629 40.87 131.685 40.814L131.643 40.688C131.783 40.52 131.881 40.338 131.937 40.142C131.993 39.946 132.063 39.75 132.147 39.554C132.287 39.246 132.427 38.938 132.567 38.63C132.735 38.35 132.903 38.07 133.071 37.79C133.295 37.426 133.505 37.076 133.701 36.74C133.897 36.376 134.107 36.012 134.331 35.648C134.443 35.48 134.555 35.326 134.667 35.186C134.779 35.018 134.877 34.85 134.961 34.682C135.185 34.178 135.465 33.604 135.801 32.96C136.137 32.316 136.473 31.756 136.809 31.28L136.767 31.196L136.893 30.986C136.949 30.734 137.103 30.44 137.355 30.104C137.607 29.74 137.747 29.46 137.775 29.264C137.495 29.264 137.103 29.362 136.599 29.558C136.095 29.726 135.577 29.95 135.045 30.23C134.513 30.482 134.065 30.762 133.701 31.07C133.337 31.35 133.169 31.602 133.197 31.826C133.225 31.966 133.309 32.092 133.449 32.204C133.589 32.288 133.715 32.358 133.827 32.414V32.54C133.799 32.54 133.771 32.554 133.743 32.582L133.785 32.624C133.757 32.624 133.743 32.61 133.743 32.582L133.701 32.666C133.505 32.638 133.239 32.582 132.903 32.498C132.567 32.414 132.259 32.288 131.979 32.12C131.699 31.952 131.559 31.742 131.559 31.49C131.559 31.182 131.783 30.874 132.231 30.566C132.679 30.23 133.211 29.922 133.827 29.642C134.443 29.334 135.031 29.082 135.591 28.886C136.179 28.662 136.599 28.536 136.851 28.508L137.775 28.34L138.489 28.256C138.713 27.948 138.937 27.64 139.161 27.332C139.413 26.996 139.637 26.674 139.833 26.366H139.917L139.959 26.324H140.169L140.211 26.282C140.491 26.31 140.827 26.506 141.219 26.87C141.611 27.206 141.821 27.486 141.849 27.71C141.849 27.822 141.807 27.92 141.723 28.004C141.639 28.088 141.527 28.158 141.387 28.214L141.261 28.298C141.121 28.382 141.051 28.452 141.051 28.508C141.051 28.564 141.093 28.606 141.177 28.634C141.261 28.662 141.345 28.704 141.429 28.76C141.569 28.816 141.709 28.886 141.849 28.97C141.989 29.026 142.143 29.11 142.311 29.222C142.619 29.418 142.913 29.684 143.193 30.02C143.501 30.328 143.669 30.762 143.697 31.322C143.725 31.518 143.711 31.714 143.655 31.91C143.627 32.106 143.641 32.302 143.697 32.498C143.837 32.498 144.019 32.484 144.243 32.456C144.467 32.428 144.621 32.414 144.705 32.414C144.873 32.414 145.139 32.47 145.503 32.582C145.867 32.666 146.119 32.75 146.259 32.834C146.371 32.89 146.455 32.974 146.511 33.086C146.595 33.17 146.679 33.24 146.763 33.296L146.805 33.506L146.553 33.548C146.385 33.492 146.217 33.436 146.049 33.38C145.909 33.324 145.755 33.296 145.587 33.296C145.475 33.296 145.349 33.31 145.209 33.338C145.097 33.366 144.971 33.408 144.831 33.464C144.439 33.604 144.075 33.87 143.739 34.262C143.431 34.654 143.137 35.088 142.857 35.564C142.633 35.76 142.451 36.012 142.311 36.32C142.171 36.6 141.989 36.852 141.765 37.076C141.597 37.272 141.415 37.482 141.219 37.706C141.023 37.902 140.841 38.084 140.673 38.252C140.645 38.28 140.617 38.308 140.589 38.336C140.561 38.364 140.519 38.406 140.463 38.462L140.211 38.672C140.127 38.756 140.043 38.826 139.959 38.882C139.875 38.938 139.819 38.994 139.791 39.05C139.651 39.218 139.371 39.414 138.951 39.638C138.531 39.862 138.069 39.918 137.565 39.806C137.229 39.75 136.879 39.498 136.515 39.05C136.151 38.63 135.969 38.28 135.969 38C135.969 37.356 136.263 36.74 136.851 36.152C137.439 35.536 138.111 34.99 138.867 34.514C139.623 34.038 140.253 33.688 140.757 33.464C140.841 33.408 141.065 33.31 141.429 33.17C141.821 33.002 142.031 32.904 142.059 32.876C142.199 32.736 142.283 32.54 142.311 32.288C142.367 32.036 142.395 31.798 142.395 31.574C142.395 30.958 142.311 30.44 142.143 30.02C142.003 29.6 141.597 29.39 140.925 29.39C140.533 29.39 140.155 29.516 139.791 29.768C139.539 29.936 139.231 30.3 138.867 30.86C138.503 31.42 138.223 31.84 138.027 32.12C137.187 33.324 136.473 34.598 135.885 35.942C135.325 37.286 134.765 38.63 134.205 39.974C134.149 40.198 134.065 40.338 133.953 40.394C133.953 40.45 133.883 40.66 133.743 41.024C133.631 41.388 133.505 41.738 133.365 42.074C133.253 42.438 133.169 42.662 133.113 42.746L133.071 42.83C133.043 42.858 133.029 42.9 133.029 42.956C133.001 43.152 132.959 43.334 132.903 43.502C132.847 43.67 132.791 43.852 132.735 44.048C132.623 44.524 132.525 45.028 132.441 45.56C132.357 46.12 132.329 46.638 132.357 47.114C132.385 47.254 132.413 47.408 132.441 47.576C132.469 47.744 132.525 47.898 132.609 48.038C132.665 48.15 132.805 48.248 133.029 48.332C133.281 48.416 133.407 48.514 133.407 48.626C133.407 48.738 133.323 48.794 133.155 48.794ZM137.817 37.958C137.957 37.874 138.097 37.79 138.237 37.706C138.377 37.594 138.503 37.482 138.615 37.37L138.867 37.16C139.595 36.684 140.099 36.236 140.379 35.816C140.659 35.396 141.065 34.864 141.597 34.22C141.709 34.108 141.737 34.01 141.681 33.926C141.513 34.066 141.331 34.192 141.135 34.304C140.967 34.416 140.771 34.528 140.547 34.64C140.351 34.752 140.155 34.878 139.959 35.018C139.763 35.158 139.581 35.298 139.413 35.438C139.329 35.466 139.091 35.634 138.699 35.942C138.531 36.054 138.363 36.194 138.195 36.362C138.027 36.502 137.873 36.67 137.733 36.866C137.481 37.146 137.355 37.44 137.355 37.748C137.355 38.084 137.509 38.154 137.817 37.958ZM150.812 38.798C150 38.798 149.37 38.616 148.922 38.252C148.502 37.916 148.208 37.482 148.04 36.95C147.872 36.39 147.76 35.816 147.704 35.228C147.676 34.92 147.55 34.71 147.326 34.598C147.242 34.542 147.144 34.5 147.032 34.472C146.948 34.416 146.906 34.332 146.906 34.22C147.018 33.996 147.186 33.828 147.41 33.716C147.634 33.576 147.774 33.492 147.83 33.464C147.83 33.436 147.83 33.408 147.83 33.38C147.858 33.324 147.872 33.268 147.872 33.212L148.082 32.582L148.376 31.49C148.46 31.182 148.53 30.86 148.586 30.524C148.67 30.16 148.768 29.796 148.88 29.432C148.992 29.04 149.118 28.634 149.258 28.214C149.398 27.794 149.566 27.346 149.762 26.87C149.986 26.814 150.098 26.758 150.098 26.702C150.126 26.618 150.112 26.492 150.056 26.324C150.056 26.296 150.042 26.268 150.014 26.24C150.014 26.212 150.014 26.184 150.014 26.156C150.014 25.988 150.07 25.806 150.182 25.61C150.322 25.414 150.448 25.218 150.56 25.022C150.7 24.798 150.84 24.602 150.98 24.434C151.12 24.238 151.204 24.126 151.232 24.098C151.96 23.118 152.716 22.194 153.5 21.326C154.312 20.458 155.278 19.716 156.398 19.1C156.538 19.044 156.65 18.988 156.734 18.932C156.846 18.848 156.972 18.792 157.112 18.764L157.07 18.722C157.126 18.722 157.182 18.722 157.238 18.722C157.294 18.694 157.35 18.68 157.406 18.68C157.63 18.68 157.994 18.764 158.498 18.932C159.002 19.1 159.464 19.31 159.884 19.562C160.332 19.814 160.556 20.094 160.556 20.402C160.556 20.71 160.388 21.172 160.052 21.788C159.716 22.376 159.296 23.034 158.792 23.762C158.288 24.462 157.756 25.162 157.196 25.862C156.664 26.562 156.16 27.178 155.684 27.71C155.236 28.242 154.9 28.62 154.676 28.844C154.564 28.956 154.452 29.054 154.34 29.138C154.228 29.222 154.116 29.32 154.004 29.432C153.78 29.656 153.556 29.894 153.332 30.146C153.136 30.398 152.912 30.636 152.66 30.86C152.296 31.196 151.834 31.574 151.274 31.994C150.742 32.386 150.294 32.75 149.93 33.086C149.818 33.198 149.734 33.296 149.678 33.38C149.65 33.464 149.594 33.562 149.51 33.674C149.398 33.814 149.314 34.108 149.258 34.556C149.23 34.976 149.23 35.298 149.258 35.522C149.286 35.774 149.356 36.096 149.468 36.488C149.58 36.852 149.748 37.188 149.972 37.496C150.196 37.804 150.476 37.958 150.812 37.958C150.98 37.958 151.12 37.93 151.232 37.874C151.372 37.79 151.512 37.72 151.652 37.664C152.464 37.216 153.15 36.754 153.71 36.278C154.298 35.774 154.9 35.186 155.516 34.514C155.74 34.29 155.95 34.066 156.146 33.842C156.37 33.59 156.594 33.352 156.818 33.128C156.958 33.016 157.098 32.89 157.238 32.75C157.406 32.582 157.588 32.512 157.784 32.54C157.756 32.876 157.644 33.114 157.448 33.254C157.28 33.366 157.126 33.534 156.986 33.758C156.846 34.01 156.706 34.248 156.566 34.472C156.426 34.696 156.3 34.948 156.188 35.228C156.132 35.34 156.048 35.452 155.936 35.564C155.824 35.676 155.726 35.788 155.642 35.9C155.194 36.432 154.718 36.922 154.214 37.37C153.71 37.79 153.122 38.126 152.45 38.378C152.17 38.49 151.904 38.588 151.652 38.672C151.4 38.756 151.12 38.798 150.812 38.798ZM149.3 32.246H149.342C151.022 30.706 152.646 29.11 154.214 27.458C155.782 25.806 157.126 24.028 158.246 22.124C158.302 22.04 158.414 21.83 158.582 21.494C158.75 21.158 158.89 20.822 159.002 20.486C159.142 20.15 159.142 19.94 159.002 19.856C158.694 19.968 158.4 20.122 158.12 20.318C157.868 20.514 157.616 20.71 157.364 20.906C157.28 20.962 157.182 21.018 157.07 21.074C156.958 21.13 156.874 21.2 156.818 21.284C156.594 21.508 156.37 21.732 156.146 21.956C155.922 22.18 155.698 22.404 155.474 22.628C155.166 22.936 154.872 23.272 154.592 23.636C154.34 24 154.074 24.364 153.794 24.728C153.15 25.568 152.618 26.31 152.198 26.954C151.778 27.57 151.302 28.326 150.77 29.222C150.686 29.39 150.532 29.684 150.308 30.104C150.084 30.524 149.874 30.944 149.678 31.364C149.482 31.756 149.356 32.05 149.3 32.246ZM168.489 38.42C168.209 38.42 167.887 38.35 167.523 38.21C167.159 38.098 166.865 37.944 166.641 37.748C165.969 37.132 165.577 36.432 165.465 35.648C165.353 34.836 165.269 34.01 165.213 33.17C165.101 33.31 164.947 33.478 164.751 33.674C164.583 33.842 164.429 33.996 164.289 34.136C164.205 34.22 164.121 34.332 164.037 34.472C163.953 34.584 163.869 34.696 163.785 34.808C163.589 35.004 163.407 35.158 163.239 35.27C163.071 35.354 162.917 35.466 162.777 35.606C162.721 35.662 162.609 35.802 162.441 36.026C162.385 36.138 162.301 36.236 162.189 36.32C162.077 36.376 161.979 36.46 161.895 36.572C161.699 36.6 161.531 36.698 161.391 36.866C161.279 37.006 161.153 37.16 161.013 37.328C160.733 37.44 160.425 37.594 160.089 37.79C159.781 37.958 159.473 38.042 159.165 38.042C158.773 38.042 158.339 37.944 157.863 37.748C157.415 37.552 157.009 37.286 156.645 36.95C156.281 36.586 156.071 36.194 156.015 35.774H155.973V35.018C155.973 34.57 156.029 34.276 156.141 34.136C156.197 34.052 156.239 33.954 156.267 33.842C156.295 33.702 156.323 33.59 156.351 33.506L156.939 32.666C157.023 32.526 157.233 32.274 157.569 31.91C157.933 31.546 158.311 31.182 158.703 30.818C159.095 30.454 159.375 30.202 159.543 30.062C159.767 29.866 160.103 29.642 160.551 29.39C160.999 29.138 161.447 28.886 161.895 28.634C162.371 28.382 162.749 28.186 163.029 28.046L163.197 28.004C163.337 27.892 163.561 27.78 163.869 27.668C164.205 27.528 164.443 27.444 164.583 27.416C164.751 27.36 165.017 27.332 165.381 27.332C165.745 27.304 166.025 27.276 166.221 27.248C166.389 27.248 166.529 27.22 166.641 27.164L167.523 27.416C167.831 27.444 168.195 27.584 168.615 27.836C169.035 28.088 169.259 28.41 169.287 28.802C169.343 28.998 169.329 29.152 169.245 29.264L168.867 29.054C168.671 28.746 168.391 28.564 168.027 28.508C167.691 28.424 167.341 28.382 166.977 28.382C166.193 28.382 165.353 28.578 164.457 28.97C163.561 29.334 162.707 29.824 161.895 30.44C161.083 31.028 160.355 31.672 159.711 32.372C159.095 33.072 158.647 33.744 158.367 34.388C158.339 34.472 158.311 34.556 158.283 34.64C158.283 34.724 158.269 34.794 158.241 34.85C158.157 35.13 158.073 35.396 157.989 35.648C157.933 35.9 157.919 36.18 157.947 36.488C157.947 36.684 157.975 36.796 158.031 36.824C158.087 36.852 158.199 36.95 158.367 37.118L158.703 37.244L158.997 37.118L159.333 36.992C159.557 36.908 159.739 36.796 159.879 36.656C159.991 36.6 160.089 36.572 160.173 36.572C160.257 36.544 160.299 36.516 160.299 36.488C160.495 36.432 160.593 36.362 160.593 36.278C160.621 36.166 160.705 36.054 160.845 35.942C161.265 35.55 161.671 35.172 162.063 34.808C162.483 34.416 162.875 34.01 163.239 33.59C163.435 33.366 163.673 33.114 163.953 32.834C164.261 32.554 164.541 32.274 164.793 31.994C164.877 31.91 164.947 31.826 165.003 31.742C165.087 31.63 165.157 31.532 165.213 31.448C165.353 31.224 165.563 30.916 165.843 30.524C166.123 30.104 166.445 29.894 166.809 29.894C166.865 29.866 166.949 29.852 167.061 29.852C167.341 29.852 167.565 29.964 167.733 30.188C167.901 30.384 167.985 30.594 167.985 30.818C167.985 31.098 167.929 31.364 167.817 31.616C167.705 31.84 167.621 32.078 167.565 32.33C167.453 32.974 167.397 33.604 167.397 34.22C167.397 34.416 167.397 34.612 167.397 34.808C167.397 35.004 167.411 35.214 167.439 35.438C167.523 36.026 167.817 36.558 168.321 37.034L168.489 37.076C168.881 36.852 169.147 36.628 169.287 36.404C169.455 36.18 169.679 35.9 169.959 35.564C169.959 35.564 169.987 35.55 170.043 35.522C170.099 35.466 170.141 35.438 170.169 35.438C170.281 35.438 170.337 35.494 170.337 35.606V35.648C170.337 35.76 170.323 35.872 170.295 35.984C170.267 36.068 170.239 36.18 170.211 36.32C170.183 36.656 170.015 37.09 169.707 37.622C169.427 38.154 169.021 38.42 168.489 38.42ZM167.888 50.852C167.188 50.852 166.698 50.614 166.418 50.138C166.138 49.69 165.998 49.2 165.998 48.668C165.998 48.108 166.096 47.562 166.292 47.03C166.488 46.498 166.726 46.008 167.006 45.56C167.23 45.168 167.468 44.762 167.72 44.342C167.944 43.922 168.196 43.53 168.476 43.166C169.148 42.242 170.016 41.276 171.08 40.268C172.172 39.288 173.194 38.476 174.146 37.832C174.622 37.524 175.196 37.202 175.868 36.866C176.568 36.502 177.184 36.208 177.716 35.984C178.248 35.732 178.514 35.606 178.514 35.606C178.766 35.522 179.018 35.396 179.27 35.228C179.55 35.088 179.76 35.018 179.9 35.018C179.928 34.99 179.956 34.962 179.984 34.934C180.012 34.906 180.04 34.878 180.068 34.85C180.264 34.626 180.39 34.29 180.446 33.842C180.502 33.394 180.586 33.03 180.698 32.75C180.754 32.61 180.796 32.512 180.824 32.456C180.88 32.372 180.908 32.246 180.908 32.078V31.826C180.908 31.686 180.922 31.56 180.95 31.448C180.978 31.336 181.006 31.224 181.034 31.112C181.062 31.028 181.076 30.846 181.076 30.566C180.88 30.622 180.712 30.734 180.572 30.902C180.46 31.07 180.334 31.224 180.194 31.364C179.942 31.588 179.704 31.84 179.48 32.12C179.284 32.4 179.06 32.652 178.808 32.876C178.416 33.24 177.884 33.744 177.212 34.388C176.54 35.032 175.84 35.606 175.112 36.11C174.384 36.614 173.74 36.866 173.18 36.866C172.816 36.866 172.41 36.726 171.962 36.446C171.514 36.166 171.206 35.886 171.038 35.606V35.522C171.038 35.438 171.024 35.354 170.996 35.27C170.968 35.158 170.954 35.06 170.954 34.976C170.954 34.444 171.08 33.856 171.332 33.212C171.584 32.568 171.878 31.966 172.214 31.406C172.55 30.846 172.858 30.44 173.138 30.188L173.264 30.02C173.376 29.88 173.474 29.754 173.558 29.642C173.67 29.53 173.782 29.418 173.894 29.306C174.118 29.054 174.342 28.844 174.566 28.676C174.818 28.508 175.098 28.424 175.406 28.424C175.518 28.424 175.756 28.494 176.12 28.634C176.484 28.774 176.834 28.928 177.17 29.096C177.506 29.236 177.674 29.362 177.674 29.474C177.702 29.586 177.646 29.642 177.506 29.642H177.38L177.296 29.6C177.268 29.6 177.24 29.6 177.212 29.6C177.184 29.572 177.142 29.558 177.086 29.558C176.806 29.558 176.414 29.796 175.91 30.272C175.434 30.72 174.944 31.294 174.44 31.994C173.936 32.666 173.516 33.324 173.18 33.968C172.844 34.584 172.676 35.06 172.676 35.396C172.676 35.536 172.732 35.606 172.844 35.606C173.124 35.606 173.418 35.508 173.726 35.312C174.062 35.116 174.342 34.948 174.566 34.808H174.65C175.91 33.884 177.03 32.974 178.01 32.078C178.542 31.602 179.074 31.126 179.606 30.65C180.138 30.174 180.67 29.67 181.202 29.138L181.454 28.886L181.706 28.592C181.874 28.396 182.07 28.214 182.294 28.046C182.546 28.102 182.91 28.186 183.386 28.298C183.89 28.41 184.156 28.662 184.184 29.054C184.184 29.194 184.156 29.334 184.1 29.474C184.072 29.586 184.044 29.712 184.016 29.852C183.988 30.132 183.946 30.412 183.89 30.692C183.834 30.972 183.778 31.252 183.722 31.532C183.694 31.7 183.638 31.868 183.554 32.036C183.498 32.204 183.442 32.372 183.386 32.54C183.33 32.736 183.288 32.946 183.26 33.17C183.26 33.394 183.218 33.618 183.134 33.842C183.106 33.926 183.036 34.08 182.924 34.304C182.812 34.5 182.756 34.64 182.756 34.724C182.756 34.752 182.812 34.766 182.924 34.766C183.008 34.766 183.078 34.766 183.134 34.766C183.218 34.738 183.274 34.724 183.302 34.724C183.974 34.724 184.576 34.948 185.108 35.396C185.164 35.424 185.192 35.452 185.192 35.48C185.22 35.48 185.248 35.48 185.276 35.48V35.564C185.276 35.704 185.192 35.816 185.024 35.9C184.856 35.984 184.744 35.928 184.688 35.732C184.66 35.648 184.59 35.606 184.478 35.606C184.366 35.578 184.268 35.564 184.184 35.564C183.904 35.564 183.512 35.662 183.008 35.858C182.532 36.026 182.308 36.278 182.336 36.614C182.196 36.698 181.986 36.936 181.706 37.328C181.454 37.72 181.314 37.986 181.286 38.126C181.258 38.238 181.244 38.35 181.244 38.462C181.244 38.574 181.188 38.686 181.076 38.798C180.964 38.91 180.866 39.022 180.782 39.134C180.726 39.246 180.698 39.414 180.698 39.638C180.53 39.694 180.348 39.848 180.152 40.1C179.956 40.352 179.872 40.562 179.9 40.73L179.774 40.772L179.858 40.94C179.634 41.024 179.522 41.136 179.522 41.276C179.354 41.332 179.214 41.472 179.102 41.696C179.018 41.92 178.892 42.088 178.724 42.2V42.368L178.388 42.536L178.43 42.662C178.318 42.746 178.206 42.83 178.094 42.914C178.01 43.026 177.926 43.138 177.842 43.25C177.73 43.362 177.632 43.46 177.548 43.544C177.492 43.628 177.436 43.698 177.38 43.754V43.922C177.296 43.95 177.254 44.02 177.254 44.132C177.114 44.16 176.988 44.23 176.876 44.342L176.666 44.552L176.708 44.636C176.624 44.692 176.54 44.748 176.456 44.804C176.4 44.86 176.358 44.944 176.33 45.056H176.204C176.12 45.224 175.98 45.392 175.784 45.56C175.616 45.756 175.462 45.924 175.322 46.064L174.608 46.946C174.384 47.142 174.132 47.324 173.852 47.492C173.6 47.66 173.362 47.856 173.138 48.08C173.054 48.136 172.97 48.206 172.886 48.29C172.83 48.374 172.76 48.458 172.676 48.542C172.564 48.654 172.41 48.752 172.214 48.836C172.046 48.948 171.892 49.074 171.752 49.214C171.304 49.522 170.716 49.872 169.988 50.264C169.232 50.656 168.532 50.852 167.888 50.852ZM168.938 49.55C169.078 49.494 169.288 49.396 169.568 49.256C169.848 49.144 170.1 49.018 170.324 48.878C170.576 48.738 170.702 48.626 170.702 48.542C171.066 48.318 171.388 48.052 171.668 47.744C171.976 47.464 172.27 47.184 172.55 46.904C172.858 46.624 173.166 46.344 173.474 46.064C173.782 45.784 174.062 45.49 174.314 45.182C174.482 44.958 174.636 44.734 174.776 44.51C174.944 44.286 175.112 44.076 175.28 43.88C175.504 43.572 175.742 43.264 175.994 42.956C176.274 42.676 176.526 42.382 176.75 42.074C177.002 41.766 177.226 41.43 177.422 41.066C177.646 40.702 177.87 40.352 178.094 40.016C178.234 39.792 178.388 39.554 178.556 39.302C178.752 39.05 178.906 38.798 179.018 38.546C179.074 38.462 179.116 38.364 179.144 38.252C179.2 38.168 179.256 38.07 179.312 37.958C179.424 37.762 179.578 37.468 179.774 37.076C179.998 36.656 180.11 36.348 180.11 36.152C179.774 36.32 179.382 36.488 178.934 36.656C178.71 36.768 178.486 36.88 178.262 36.992C178.066 37.076 177.968 37.146 177.968 37.202C177.828 37.23 177.492 37.37 176.96 37.622C176.456 37.874 175.952 38.14 175.448 38.42C174.944 38.7 174.622 38.91 174.482 39.05C173.95 39.442 173.432 39.862 172.928 40.31C172.452 40.758 171.976 41.206 171.5 41.654C171.388 41.766 171.29 41.878 171.206 41.99C171.122 42.102 171.038 42.228 170.954 42.368C170.926 42.424 170.884 42.466 170.828 42.494C170.8 42.55 170.772 42.606 170.744 42.662C170.688 42.718 170.576 42.872 170.408 43.124C170.24 43.376 170.086 43.628 169.946 43.88C169.806 44.132 169.722 44.3 169.694 44.384C169.442 44.636 169.148 45.056 168.812 45.644C168.476 46.232 168.238 46.708 168.098 47.072L167.804 47.744C167.72 47.856 167.678 48.052 167.678 48.332C167.65 48.612 167.636 48.836 167.636 49.004C167.664 49.256 167.762 49.41 167.93 49.466C168.098 49.55 168.434 49.578 168.938 49.55Z" fill="#FDFDFD"/>
<path opacity="0.3" d="M39.926 27.04L35.4717 25.4805C37.2669 19.8238 40.1466 16.2951 44.1723 15.238C46.2682 14.6876 49.4368 11.144 49.4368 9H54.1321C54.1321 13.4313 49.4753 18.9288 45.311 20.0223C43.0764 20.609 41.2609 22.8337 39.926 27.04Z" fill="#F324F2"/>
<path fill-rule="evenodd" clip-rule="evenodd" d="M30.001 24.8181L45.0345 24.8181C47.4625 24.3681 49.9512 25.5361 50.9842 27.6995L57.1183 40.5463C58.0436 42.4842 57.5656 44.7564 55.9242 46.2229L55.128 46.9343L55.0165 47.0307C53.0698 48.6615 50.0769 48.5088 48.3316 46.6898L43.4097 41.5592H31.8803L26.9609 46.6898C25.2157 48.5088 22.2228 48.6615 20.276 47.0307C20.2383 46.9991 20.2012 46.967 20.1646 46.9343L19.3277 46.1866C17.7063 44.738 17.2181 42.5008 18.1033 40.5746L23.9928 27.7589C25.0079 25.55 27.5356 24.3483 30.001 24.8181ZM30.3327 29.8417C28.3536 29.8417 26.7493 31.3408 26.7493 33.19C26.7493 35.0392 28.3536 36.5383 30.3327 36.5383C32.3117 36.5383 33.916 35.0392 33.916 33.19C33.916 31.3408 32.3117 29.8417 30.3327 29.8417ZM42.8743 33.19C41.8848 33.19 41.0827 33.9396 41.0827 34.8642C41.0827 35.7888 41.8848 36.5383 42.8743 36.5383C43.8638 36.5383 44.666 35.7888 44.666 34.8642C44.666 33.9396 43.8638 33.19 42.8743 33.19ZM46.4577 29.8417C45.4681 29.8417 44.666 30.5912 44.666 31.5158C44.666 32.4405 45.4681 33.19 46.4577 33.19C47.4472 33.19 48.2493 32.4405 48.2493 31.5158C48.2493 30.5912 47.4472 29.8417 46.4577 29.8417Z" fill="url(#paint0_linear_71_8)"/>
<defs>
<linearGradient id="paint0_linear_71_8" x1="37.6259" y1="24.7171" x2="37.6259" y2="48.1605" gradientUnits="userSpaceOnUse">
<stop stop-color="#F324F2"/>
<stop offset="1" stop-color="#1500D2" stop-opacity="0.65"/>
</linearGradient>
</defs>
</svg>
