<?xml version="1.0" encoding="UTF-8"?>
<svg width="89px" height="131px" viewBox="0 0 89 131" version="1.1" xmlns="http://www.w3.org/2000/svg" xmlns:xlink="http://www.w3.org/1999/xlink">
    <!-- Generator: Sketch 59.1 (86144) - https://sketch.com -->
    <title>R@3x</title>
    <desc>Created with Sketch.</desc>
    <g id="Web" stroke="none" stroke-width="1" fill="none" fill-rule="evenodd">
        <g id="3_Profile_3A" transform="translate(-707.000000, -180.000000)">
            <g id="R" transform="translate(709.000000, 180.205353)">
                <g id="Group-53-Copy" transform="translate(0.000000, 75.243301)">
                    <path d="M31.6603828,1.3500312e-13 L22.8090355,3.29071913 C22.8090355,3.29071913 12.36921,8.39744183 14.9792618,15.7733101 L7.26286907,21.4473192 C7.26286907,21.4473192 5.78777177,22.468511 5.10672271,24.057371 C4.42567365,25.646231 1.64845915e-12,40.1712056 1.64845915e-12,40.1712056 C1.64845915e-12,40.1712056 11.6885427,53.7631735 42.5541138,54.2422748 C55.830753,53.1073202 65.0226248,50.837793 65.0226248,50.837793 C65.0226248,50.837793 80.4554103,46.4121193 84.9944649,40.5113484 L81.5903649,27.6882329 L80.0015049,23.7168465 C80.0015049,23.7168465 79.6609804,21.674081 76.8245484,20.4261273 L70.4694903,15.6599291 C70.4694903,15.6599291 72.7390176,6.01453362 57.9872811,1.81562183 C51.8593665,0.453905457 51.2920802,0.453905457 51.2920802,0.453905457 L31.6603828,1.3500312e-13 Z" id="Fill-1-Copy-4" stroke="#000000" stroke-width="2" fill="#010101"></path>
                    <path d="M32.4548128,16.6811973 L33.0220992,14.0711455 C33.0220992,14.0711455 32.3410501,11.2339501 32.3410501,10.7804264 C32.3410501,10.3265209 29.844761,6.69527728 29.3908555,5.33317916 C28.9369501,3.97184454 28.255901,3.53192601 28.255901,3.53192601 C28.255901,3.53192601 18.6105055,6.01460997 17.4759327,11.6882373 L16.4543591,17.7027709 C16.4543591,17.7027709 8.17067998,22.0452222 7.26286907,24.5113528 C7.26286907,24.5113528 2.04276543,38.4686593 2.38328997,39.6036138 L4.31229272,41.3058547 C4.31229272,41.3058547 14.2982128,46.979482 19.2915546,48.6817229 L34.156672,51.6322993 C34.156672,51.6322993 45.6176893,53.561302 52.5400339,51.6322993 L71.1501576,46.6393393 L81.7037458,41.0787111 L83.0654622,40.0575193 C83.0654622,40.0575193 79.093694,27.2347855 78.4130267,26.2132119 C77.7323594,25.1920201 76.8245484,22.1284446 69.2215366,18.0429137 L67.8594385,11.8016182 C67.8594385,11.8016182 65.7036739,7.48970727 63.5471458,6.69527728 L60.029283,4.42536824 C60.029283,4.42536824 57.0252611,3.17741455 56.8821034,3.63132001 C56.7385639,4.08522547 53.545024,7.8534493 53.545024,7.8534493 L53.545024,13.5352831 L52.2152376,19.2517208 L43.5268937,26.2132119" id="Fill-4-Copy-2" fill="#991A22"></path>
                    <path d="M80.0014285,23.7169992 C81.3413849,26.2342848 84.0930917,38.4389588 83.1619938,40.5676189 C81.86325,41.2720172 81.1936309,43.1415527 80.0014285,43.783896 C72.066497,48.0591352 66.0420143,49.678134 64.8083845,49.8633278 C63.3890233,50.0759648 49.9787702,53.836623 41.2507294,53.4109673 C29.3300803,52.7012867 19.1834418,49.3380344 16.1317007,48.3588354 C13.0807231,47.3796365 1.86975454,40.5676189 1.86975454,40.5676189 C1.86975454,40.5676189 4.06942085,20.9382121 14.429078,18.4064198 C16.4542828,17.7028473 23.2277433,21.054647 23.2277433,21.054647 C23.2277433,21.054647 30.3757044,23.963994 35.4228735,24.1770127 C40.4700426,24.3896496 44.3013253,26.9703064 48.1684929,23.8349611 C52.0360423,20.6996159 70.3159488,16.7263207 70.3159488,16.7263207 C70.3159488,16.7263207 78.6618539,21.1993318 80.0014285,23.7169992 Z" id="Fill-6-Copy-2" fill="#991A22"></path>
                    <path d="M49.8950897,25.3094476 L48.1687983,24.5894597 C48.2340783,24.5715172 57.0010579,21.0952657 60.7559899,20.424524 C64.6578971,19.7282047 69.3130048,16.0335899 69.9406084,14.2763765 L71.2049775,16.7383077 C70.6468532,18.8116135 65.1106573,21.5346645 61.3423639,21.8591553 C53.7885984,22.5089006 49.9603697,25.2918869 49.8950897,25.3094476" id="Fill-11-Copy-2" fill="#000000"></path>
                    <path d="M16.454321,17.7026946 C16.454321,17.7026946 5.32046675,21.6695 2.36759988,38.9965487" id="Stroke-15-Copy" stroke="#F90D0D"></path>
                    <path d="M22.1564271,37.7104959 C22.1564271,37.7104959 13.4734333,32.3632682 8.74502881,23.8348848" id="Stroke-17-Copy" stroke="#F90D0D"></path>
                    <path d="M25.134757,29.6690397 C25.134757,29.6690397 12.4097523,24.782589 10.3795847,21.3983401" id="Stroke-19-Copy" stroke="#F90D0D"></path>
                    <path d="M58.4383234,14.0312904 C57.9813639,14.0312904 51.5846946,16.7719021 48.3863599,21.3983783" id="Fill-21-Copy" fill="#000000"></path>
                    <path d="M54.1812323,11.1901247 C54.1358036,11.4260487 53.0042848,15.9929713 53.0042848,15.9929713 C53.0042848,15.9929713 56.4820634,12.9496287 59.289482,13.5917389 L53.1302637,17.96244 L43.9368648,25.5337662 L43.7841632,33.4654682 L45.4207425,26.13312 C45.4207425,26.13312 45.1691666,25.0435942 47.1386353,24.2472554 C49.1077222,23.4512984 61.3719499,20.7034334 61.3719499,20.7034334 C61.3719499,20.7034334 70.6023788,17.2916983 70.30881,12.2639986 C69.219666,8.19984598 64.4847717,2.4594117 60.253029,2.54339758 C57.9907551,3.71652749 53.3814578,7.89520633 54.0102065,11.1901247" id="Fill-23-Copy" fill="#991A22"></path>
                    <path d="M61.8199381,35.2776925 C61.8199381,35.2776925 64.263927,29.8006684 57.8672577,30.1976925 C51.4702066,30.5943349 31.3662796,35.2047775 19.3723337,19.7063302 C16.4542064,17.7028855 15.4883689,14.9450949 6.92142833,22.7126427 L4.63663088,26.7103701 L0.359077774,38.9967395 C0.359077774,38.9967395 1.64235553,41.9564398 6.43985754,43.783896 C11.2373595,45.611734 10.3793557,45.5579448 10.3793557,45.5579448 C10.3793557,45.5579448 10.5687057,31.5296321 8.74506699,27.1211374 C12.0617454,34.3637735 17.7567509,45.9011416 17.7567509,45.9011416 L19.4864781,49.5362028 L40.5043241,54.0111227 L45.1884452,53.5541632 L47.8771383,51.2693658 L42.4974615,49.5362028 C42.4974615,49.5362028 31.3200873,48.2141889 22.1564653,38.9967395 C44.5024333,45.9011416 52.7196873,46.3577194 52.7196873,46.3577194 L53.412189,45.3300377 C53.412189,45.3300377 30.0774782,40.4718368 20.7432122,30.7390196 C39.2479718,38.8188422 54.7830674,41.9969439 56.4963792,42.0641326 L61.8199381,35.2776925 Z" id="Fill-25-Copy" fill="#DD1D29"></path>
                    <polygon id="Fill-27-Copy" fill="#DD1D29" points="68.6043931 47.9350886 75.6866926 34.5924059 72.1455429 48.3588354 64.8086135 49.8633278"></polygon>
                    <polygon id="Fill-29-Copy" fill="#000000" points="77.5234254 29.6690397 72.1456574 48.35895 74.8343505 47.22934"></polygon>
                    <path d="M67.7111271,7.86470418 C67.4557337,7.57457118 69.0522287,12.9763897 68.1722858,14.5266925 C69.1358328,14.2335055 70.8117327,11.3840939 67.7111271,7.86470418" id="Fill-31-Copy-3" fill="#FF1E2C"></path>
                    <path d="M58.491998,4.27457543 C58.366401,4.52576953 54.6385735,8.78614372 54.6385735,8.78614372 L54.1812323,10.1688566 C54.1812323,10.1688566 55.7280993,10.5464112 56.9428404,10.1688566 C58.1579633,9.7920654 62.5572959,7.85351879 62.5572959,7.85351879 L63.6021565,6.15356841 L58.491998,4.27457543 Z" id="Fill-33-Copy" fill="#000000"></path>
                    <path d="M52.9662622,22.225601 C52.7227031,22.225601 52.6146668,22.1160376 52.5665658,22.0156363 C52.2153521,21.2845775 55.1056113,18.4038621 56.3642541,17.1994283 L61.8454775,12.7248902 C62.6101307,11.9503114 62.8941556,10.8409344 62.5994416,10.2946445 C62.5066753,10.1236187 61.892815,9.84646534 60.5043758,10.1274362 L61.7824881,9.61779471 C63.0411309,9.36316482 63.9771916,9.10662616 64.2337302,9.58267335 C64.7574967,10.5542372 62.5715735,12.9680675 62.3432846,13.1986468 L56.9846043,18.1297627 C55.1380604,19.8988106 53.3243474,21.3483304 53.4121508,21.7663509 C53.4159683,21.7648239 53.6110446,21.3983401 53.6328046,21.3983401 C53.6545645,21.3983401 53.0010018,21.843847 53.04414,21.8377389 C54.7299654,21.6132676 61.9741286,18.5348037 64.1081332,16.5378487 C64.670075,16.01141 66.8689778,12.6542657 65.7332598,9.86708005 C65.0170894,8.10910307 62.4337603,5.66549598 58.660886,4.88977193 C58.4959682,4.85579583 58.5326166,4.28812769 58.4921507,4.27476631 L58.612785,3.91210004 C58.6479063,3.92393442 58.7421995,3.94225861 58.884212,3.97165366 C62.7891733,4.77448224 65.7294423,5.97051739 66.4960042,7.85370967 C67.6840225,10.7676376 67.203776,14.8157566 64.7300104,16.9180757 C62.4070376,18.8925071 54.8567078,21.9812784 53.0949132,22.2168206 C53.0483393,22.2225469 53.0055828,22.225601 52.9662622,22.225601" id="Fill-35-Copy-2" fill="#000000"></path>
                    <path d="M54.2841532,9.98897409 C54.338744,9.77137433 53.929122,12.4722836 53.929122,12.4722836 C53.929122,12.4722836 56.2708008,11.8305552 56.7678444,11.9740947 C57.2645063,12.1176342 60.315484,10.485636 60.315484,10.485636 C60.315484,10.485636 63.2248309,8.00194473 64.8564473,9.98897409 C65.9207773,11.1949348 66.205184,10.2726173 66.205184,10.2726173 L65.353491,9.21821285 L63.4378496,8.08936639 L63.792499,7.00862093 L62.9411877,6.44095279 C62.9411877,6.44095279 61.0961708,10.6914014 57.9738052,11.1208746 C54.8518213,11.549966 54.0711345,10.8402854 54.2841532,9.98897409" id="Fill-37-Copy" fill="#000000"></path>
                    <path d="M61.1188088,9.83722689 C61.1188088,9.83722689 64.027774,8.77976842 64.2407927,9.45051013 C64.4534297,10.1212518 62.5377883,13.7402794 60.6217652,15.3012713 C58.7061238,16.8618815 57.2871443,18.5198389 57.6417938,18.4007317 C57.9964432,18.2812427 64.2572081,13.0626661 64.2572081,13.0626661 C64.2572081,13.0626661 66.1564341,10.5469075 65.6601539,9.76622065 C65.163492,8.98591556 63.7441308,7.28291115 61.1188088,9.83722689" id="Fill-39-Copy" fill="#5F0A0F"></path>
                    <path d="M76.2674549,22.9047794 C76.1624726,24.5783888 71.5600468,39.0136512 71.5600468,39.0136512 L78.4129121,26.2130592 C78.4129121,26.2130592 79.196653,23.0735147 80.45186,27.1212519 L80.45186,42.2278669 L84.9944649,40.5113484 C82.5882697,40.5113484 83.0653476,22.6955783 72.1456574,18.4065725 C72.1456574,18.4065725 76.3716737,21.2307883 76.2674549,22.9047794 Z" id="Fill-41-Copy" fill="#DD1D29"></path>
                    <path d="M74.0585501,39.8254129 L73.6783232,39.7929638 C73.6874853,39.6830186 73.7241337,28.8595304 60.9861493,20.8991968 L61.9210648,20.4246767 C68.6804004,24.6484025 71.6202876,29.6909905 72.8968728,33.1775494 C74.2830215,36.9641669 74.068094,39.7101232 74.0585501,39.8254129" id="Fill-13-Copy-2" fill="#000000"></path>
                    <polygon id="Fill-43-Copy" fill="#000000" points="43.6554358 34.5233466 43.7539283 34.0018707 46.2567073 25.4803589 47.1675722 25.103186"></polygon>
                    <path d="M37.3631762,25.3094476 L39.1039742,24.5894597 C39.037549,24.5715172 30.1972726,21.0952657 26.4114186,20.424524 C22.4766805,19.7282047 17.7822521,16.0335899 17.1496858,14.2763765 L15.8742458,16.7383077 C16.4373329,18.8116135 22.0197211,21.5346645 25.8197,21.8591553 C33.4368367,22.5089006 37.2971327,25.2918869 37.3631762,25.3094476" id="Fill-45-Copy" fill="#000000"></path>
                    <polygon id="Fill-47-Copy" fill="#000000" points="43.6554358 34.5233466 43.555798 34.0018707 41.0316408 25.4803589 40.1135226 25.103186"></polygon>
                    <path d="M15.4738623,17.0864673 C15.4738623,17.0864673 7.97010645,20.6719005 6.77254428,23.3773908 L3.89870048,28.6368151 L0.864901769,38.9350099 L6.5328028,26.6631472 L7.41121866,24.6455775 C7.41121866,24.6455775 13.5578391,36.5704259 22.8184267,38.4711789 C18.7470207,35.2625368 13.3184794,30.9517711 9.48643318,23.0487007 C18.6672341,27.9183542 21.2219316,28.8609047 25.6124839,29.6667873 C18.7470207,26.720792 11.8414733,22.5837244 11.6421978,20.9406553 C16.4320647,18.6581484 16.9371252,18.1996619 16.9371252,18.1996619 L15.4738623,17.0864673 Z" id="Fill-49-Copy" fill="#F04E58"></path>
                    <path d="M29.0477351,33.4653537 C29.0477351,33.4653537 41.1348289,40.7809048 52.2152376,37.7169476 C42.5740414,36.8110454 48.1858246,40.1922402 29.0477351,33.4653537" id="Fill-51-Copy" fill="#FF1A1A"></path>
                    <path d="M43.6554358,43.783896 L43.746675,42.7352179 C45.2927785,42.4286694 47.029759,41.9209367 47.1515386,41.6537089 C47.1687175,41.5594157 47.2431595,40.9199778 47.124434,40.1999898 C46.4903407,36.359545 46.7079405,27.4188673 48.9572348,25.0573373 L49.2336246,25.3207475 C47.095039,27.5666061 47.3935706,36.7355727 47.506188,40.187392 C47.5409276,41.253249 47.4023509,42.2229041 47.3718106,42.3450653 C47.2233083,42.9402198 44.7182388,43.5735496 43.6554358,43.783896" id="Fill-53-Copy" fill="#000000"></path>
                    <path d="M48.0142643,50.3650289 L47.7397832,50.0997098 C47.861181,49.9744946 57.5871266,39.3132517 49.8951661,25.3093713 L50.1910254,25.0684845 C60.2483334,37.4480019 48.1375709,50.2371413 48.0142643,50.3650289" id="Fill-55-Copy" fill="#000000"></path>
                    <path d="M43.6554358,43.783896 L43.5630513,42.7352179 C42.0039682,42.4286694 40.252481,41.9209367 40.1295562,41.6537089 C40.1123773,41.5594157 40.03679,40.9199778 40.1570425,40.1999898 C40.7964804,36.359545 40.5769719,27.4188673 38.3089716,25.0573373 L38.0299095,25.3207475 C40.1868193,27.5666061 39.8856155,36.7355727 39.7718528,40.187392 C39.7371132,41.253249 39.8768351,42.2229041 39.9073754,42.3450653 C40.0574047,42.9402198 42.5834707,43.5735496 43.6554358,43.783896" id="Fill-57-Copy" fill="#000000"></path>
                    <path d="M39.2596535,50.3650289 L39.5364251,50.0997098 C39.4138821,49.9744946 29.6062411,39.3132517 37.3630998,25.3093713 L37.0645682,25.0684845 C26.9232743,37.4480019 39.1352017,50.2371413 39.2596535,50.3650289" id="Fill-59-Copy" fill="#000000"></path>
                    <path d="M21.0860654,6.96250505 C21.0860654,6.96250505 15.3044017,9.93904067 18.7119375,15.2297688 C19.3399228,14.8709201 17.4991052,10.8819729 21.0860654,6.96250505" id="Fill-61-Copy" fill="#E34A4A"></path>
                    <path d="M23.6808089,9.00549954 C23.6808089,9.00549954 20.6321218,9.35022336 22.0667531,11.7113716 C23.5013845,14.0725198 23.6808089,14.5527663 23.6808089,14.5527663 C23.6808089,14.5527663 20.6321218,10.0358535 23.6808089,9.00549954" id="Fill-63-Copy" fill="#ED0F0F"></path>
                    <path d="M25.8445903,13.8061319 C25.8445903,13.8061319 22.419112,10.9082376 24.6077075,11.0739188 C26.7959212,11.2392183 25.8445903,10.5219026 25.8445903,10.5219026 C25.8445903,10.5219026 23.6563766,10.2241345 23.3712064,10.193976 C23.0852727,10.1634356 21.6582764,10.0267677 23.3712064,12.5161853 C25.0833729,15.0059846 31.4582823,19.8477701 31.4582823,19.8477701 L33.8369912,22.1356216 L23.6808089,18.1508737 C23.6808089,18.1508737 17.7567509,12.4722836 21.6582764,8.59060934 C25.3689249,6.30733891 26.0442476,5.92902074 26.4050051,5.83969031 C26.7653809,5.74959638 29.6396064,4.49438936 29.6396064,4.49438936 L28.6275767,3.91221457 C28.6275767,3.91221457 18.0300868,5.98666558 18.8859792,12.4722836 C20.028187,16.9853789 24.2618384,19.7931793 26.3202557,20.5299644 C33.360944,22.7174146 35.9301482,23.7931972 35.9301482,23.7931972 L33.7678937,21.3984547 L30.7192066,18.0038985" id="Fill-65-Copy" fill="#000000"></path>
                    <path d="M32.9588426,11.0853715 C32.9588426,11.0853715 30.3583346,11.8626225 28.9237032,11.0853715 C27.4890718,10.3081204 25.6058796,8.92846159 25.336743,8.90059355 C25.0679882,8.87348902 23.6329751,8.3794994 23.6329751,8.3794994 L20.3781409,10.0401291 L21.2118915,8.3794994 C21.2118915,8.3794994 23.2745081,6.36116622 27.0855579,8.3794994 C30.8966077,10.3978326 32.0621025,10.4253189 32.6003756,10.2321514 C33.1382669,10.0389839 33.7658704,10.2321514 33.7658704,10.2321514 L33.7658704,10.7349213 L32.9588426,11.0853715 Z" id="Fill-67-Copy" fill="#000000"></path>
                    <path d="M27.0718529,13.537339 C27.0718529,13.537339 35.465859,18.3386585 35.8063835,19.1330885 C36.1465263,19.9275185 34.3309045,16.4718816 34.3309045,16.4718816 C34.3309045,16.4718816 32.0686305,13.4453363 27.0718529,13.537339" id="Fill-69-Copy" fill="#010101"></path>
                    <path d="M19.3722955,19.7061775 C18.8931943,20.0257056 7.93456516,30.2292254 8.3338798,38.9293981 C9.29208224,32.4628678 17.2749393,21.5263804 21.2665587,21.2068523 C25.2581781,20.887706 19.3722955,19.7061775 19.3722955,19.7061775" id="Fill-71-Copy" fill="#000000"></path>
                    <path d="M15.4522168,39.0138039 C15.4522168,39.0138039 23.3972802,49.1394459 27.8237174,51.1825931 L31.90963,51.7502613 C31.90963,51.7502613 25.4400456,49.2043441 15.4522168,39.0138039" id="Fill-73-Copy" fill="#FF1A1A"></path>
                    <path d="M36.4119678,16.5453311 C37.2285396,17.763508 42.8025291,23.5841106 42.8025291,23.5841106 L49.248063,16.1387631 L50.2734541,10.5888241 C50.2734541,10.5888241 47.8096741,11.8178555 42.8821142,14.2759183 C37.5918953,11.8178555 34.9467859,10.9020023 34.9467859,11.5283588 C35.3786837,14.0603801 35.8670777,15.7327042 36.4119678,16.5453311 Z" id="Fill-9-Copy" fill="#C47C63"></path>
                </g>
                <g id="Group-55-Copy" transform="translate(11.470588, 20.859266)">
                    <path d="M30.8550546,2.20268248e-13 C35.0329586,2.20268248e-13 38.9964333,0.918081085 42.5547388,2.56350337 C46.4384574,3.1372379 53.5328007,8.97395563 54.7103045,10.2514085 C58.1420858,13.9750168 61.3520085,20.8638023 58.7062629,26.1295057 C58.7432005,26.716897 58.7619588,27.30971 58.7619588,27.9069043 C58.7619588,33.0525054 56.4030873,40.3136089 51.6333348,47.4046764 C49.5628384,51.6533461 46.5918184,57.7793392 44.1033068,59.3063847 C40.8097988,61.3274066 33.0743407,65.354776 26.1839093,63.7215061 C19.293478,62.0882361 17.7635921,59.6713864 15.5769734,56.2169486 C13.5338385,52.9696818 9.43622697,48.2476191 7.49507109,41.9537033 C4.54836305,36.8080724 2.94815027,31.8736967 2.94815027,27.9069043 C2.94815027,12.4943466 15.4424969,2.20268248e-13 30.8550546,2.20268248e-13 Z" id="Combined-Shape" fill="#C47C63"></path>
                    <polygon id="Fill-1-Copy-15" fill="#C47C63" points="9.08088235 23.1621956 0 27.789249 7.3419129 40.650032"></polygon>
                    <polygon id="Fill-2-Copy-8" fill="#C47C63" points="50.6078108 41.869653 54.2976198 41.8631421 61.9392087 27.3420393 55.1367814 21.237118"></polygon>
                    <polygon id="Fill-1" fill="#9B492C" points="33.8252328 40.1658901 28.7767402 40.1658901 26.1839093 38.4496033 27.1006005 41.2398239 35.0463726 41.2398239 35.3541667 38.4496033"></polygon>
                    <path d="M24.3539555,53.706747 C25.511529,54.0078499 28.8898211,54.4611107 31.1179828,54.4778386 C33.5268064,54.4979122 35.4505196,54.1131695 36.6482402,53.8020298 C36.6482402,53.8020298 38.6455564,51.6006328 39.8198578,49.144971 C32.7640123,51.0921033 21.9477255,49.2286107 21.9477255,49.2286107 C23.2792696,50.7541989 25.3018813,51.8117818 24.3539555,53.706747 Z" id="Fill-2" fill="#FFFFFF"></path>
                    <polygon id="Fill-8-Copy-7" fill="#493223" points="10.5969283 23.4783037 15.6272094 21.4276693 25.4491599 22.7947589 25.9285427 20.0595015 14.1901405 18.9199008"></polygon>
                    <polygon id="Fill-8-Copy-8" fill="#493223" transform="translate(44.071178, 22.180649) scale(-1, 1) translate(-44.071178, -22.180649) " points="36.7474511 22.4268668 41.0935725 22.7509883 50.915523 24.118078 51.3949058 21.3828206 39.1750193 20.2432199"></polygon>
                    <path d="M38.6280634,31.450558 L38.6280634,31.848394 C38.7770608,31.7147038 38.7651842,31.5799355 38.6280634,31.450558" id="Fill-18-Copy-5" fill="#1E2228"></path>
                    <path d="M19.5151546,36.0726793 C19.7116583,36.0726793 19.712738,35.7675639 19.5151546,35.7675639 C19.3175711,35.7675639 19.3175711,36.0726793 19.5151546,36.0726793" id="Fill-20-Copy-5" fill="#1E2228"></path>
                    <path d="M37.8486511,29.4509367 C37.1420628,31.8125284 44.9296476,34.0040854 48.6477376,29.4509367 L48.8253293,28.7745768 C48.8253293,28.7745768 43.6902843,23.8813588 37.8486511,29.4509367" id="Fill-6" fill="#FFFFFF"></path>
                    <path d="M43.3358566,26.7519207 C41.9680227,26.7519207 40.85713,27.8099138 40.85713,29.1135124 C40.85713,30.4171111 41.9680227,31.4751041 43.3358566,31.4751041 C44.7036905,31.4751041 45.8145833,30.4171111 45.8145833,29.1135124 C45.8145833,27.8099138 44.7036905,26.7519207 43.3358566,26.7519207" id="Fill-8" fill="#3E2723"></path>
                    <path d="M37.4723078,28.5357726 L37.8501625,29.4501809 C37.8501625,29.4501809 42.2446123,25.248437 49.4314082,28.7738211 C50.2400172,26.2195235 42.0330137,24.7685616 37.4723078,28.5357726" id="Fill-10" fill="#513A44"></path>
                    <path d="M13.7751222,30.4946756 L13.7751222,30.8925116 C13.9241196,30.7588215 13.912243,30.6240532 13.7751222,30.4946756" id="Fill-18-Copy-5" fill="#1E2228"></path>
                    <path d="M13.9515923,30.406819 C13.245004,32.7684107 21.0325888,34.9599678 24.7506788,30.406819 L24.9282705,29.7304591 C24.9282705,29.7304591 19.7932255,24.8372412 13.9515923,30.406819" id="Fill-6" fill="#FFFFFF"></path>
                    <path d="M19.4387978,27.7078031 C18.0709639,27.7078031 16.9600711,28.7657962 16.9600711,30.0693948 C16.9600711,31.3729934 18.0709639,32.4309865 19.4387978,32.4309865 C20.8066317,32.4309865 21.9175244,31.3729934 21.9175244,30.0693948 C21.9175244,28.7657962 20.8066317,27.7078031 19.4387978,27.7078031" id="Fill-8" fill="#3E2723"></path>
                    <path d="M13.575249,29.491655 L13.9531037,30.4060633 C13.9531037,30.4060633 18.3475535,26.2043194 25.5343493,29.7297034 C26.3429583,27.1754059 18.1359549,25.7244439 13.575249,29.491655" id="Fill-10" fill="#513A44"></path>
                    <polygon id="Path-21" fill="#9B492C" points="21.3794774 49.144971 23.9908589 51.2723693 23.0888099 53.9225158 25.5654462 53.9225158 25.8208128 51.2723693"></polygon>
                    <g id="Group-5" transform="translate(6.503502, 41.863142)" fill="#493223">
                        <path d="M31.76609,1.05914823 L18.2647496,0.925438496 C17.0513338,1.4736484 12.4416907,7.81148979 12.4416907,7.81148979 L14.7281272,17.7828932 L16.5866925,19.634773 L15.7677204,9.8171358 L18.6625361,5.29440405 L25.1508009,4.06093176 L30.3086539,4.89661759 L34.5305388,9.8171358 L33.7115667,19.634773 L36.1718258,18.1806797 L37.1947052,6.88220714 C37.1947052,6.88220714 33.1967842,1.78118079 31.76609,1.05914823" id="Fill-1"></path>
                        <path d="M28.0406026,17.9510332 L26.3792591,15.8384194 C25.5235168,14.7486851 23.8989436,14.6784874 22.9562899,15.6946814 L20.5027163,18.3254204 C19.8074257,19.0708522 18.6976349,19.2580458 17.798437,18.7800335 L10.8054179,15.0796167 C10.4878573,14.9124795 10.2271233,14.6851729 10.0232159,14.3910115 C8.37190071,12.0243492 1.30973758,0.718515236 0.838410769,0.00651090317 L7.68663833,15.6278266 C7.85377549,15.9721291 8.10448125,16.2629478 8.41201363,16.4802261 L17.1265455,22.6007892 C17.524332,22.8815796 17.9990016,23.0219748 18.4836993,23.0086039 L29.220591,22.7177852 C29.5882927,22.7044142 29.9526518,22.6041319 30.2702124,22.4236238 L38.8008934,17.5733032 C39.2187363,17.3359684 39.5496679,16.9682666 39.743547,16.5303673 L47.7444807,1.57624032 C47.7444807,1.57624032 38.3863932,13.7659185 38.3863932,14.5614914 C38.3863932,15.1431288 33.375621,17.4462789 30.7248255,18.6229246 C29.7788291,19.0407675 28.6824093,18.7633198 28.0406026,17.9510332 Z" id="Fill-3"></path>
                    </g>
                    <path d="M35.821526,34.3110696 C34.2304851,36.1871793 33.9141454,37.97011 34.8725069,39.6598616" id="Path-27" stroke="#9C4A2D"></path>
                </g>
                <g id="Group-54-Copy" transform="translate(2.867647, -0.000000)">
                    <path d="M71.3650509,37.2818563 L71.3650509,29.664492 C71.3650509,24.1928613 68.1569629,19.0968212 62.2345327,15.288139 C56.3944459,11.4257571 48.5800058,9.33372336 40.1897914,9.33372336 C22.9981176,9.33372336 9.01453185,18.4530395 9.01453185,29.664492 L9.01453185,37.3354535 C9.01453185,37.2818563 9.01453185,37.2281565 9.01453185,37.2281565 C9.42577674,34.4923411 6.28520768,41.1329372 8.99970735,39.3090945 C10.3563835,38.3975586 10.3905894,36.7733647 11.0601885,32.1061225 C11.20924,31.0672032 11.20924,29.9431537 11.0601885,28.7339741 C11.0601885,19.2927671 25.7126173,12.5523236 40.1897914,12.5523236 C47.1815842,12.5523236 53.8444757,14.3225692 58.7797292,17.5411695 C63.7149828,20.7597698 66.4296399,25.0512368 66.4296399,29.664492 L70.4660227,29.664492 C73.1805223,31.4883347 70.953806,34.4386413 71.3650509,37.1744567 C71.3650509,37.1745594 71.3650509,37.2281565 71.3650509,37.2818563 Z" id="Path-Copy-2" fill="#66606F" fill-rule="nonzero"></path>
                    <path d="M46.6254493,12.143417 C43.6021959,9.00815657 40.4930704,6.92109429 36.4906898,4.44480796 C37.3428758,7.14604152 38.1950618,9.8463417 39.0472478,12.5475753 C34.908592,10.4073097 30.7708697,8.26704412 26.6331474,6.12584516 C27.9762971,8.55452855 29.3185133,10.9822785 30.6625964,13.4100285 C28.019233,11.6067171 21.2260133,10.4810476 18.5817166,8.67680277 C18.9186708,11.5899161 21.7188438,14.5758339 21.4108247,17.4842803 C21.1690765,19.7785554 18.9733671,21.8676626 17.897541,24.1029559 C14.5703918,31.0159265 16.4994231,33.7723202 10.2907971,37.9608167 C8.42842717,39.2172186 7.78842585,54.58876 12.5949513,55.9014252 C13.1486166,55.7140185 14.1818052,46.9395633 17.038871,40.1863898 C18.0686996,37.7522103 19.8841229,33.4686331 23.1428316,30.5470874 C25.6538956,28.295831 26.9250247,27.0019708 27.8860397,27.0681524 C29.9787023,27.2118946 31.1875401,26.494117 33.1383273,27.0681524 C35.3181064,27.7084587 38.2643541,29.8671276 41.9770704,33.5441592 C51.0906628,31.2896155 56.4921779,30.3754679 58.1816156,30.8017164 C61.8937116,31.738841 62.8379054,34.2452846 65.5111373,38.2467319 C66.0982905,39.1256166 65.2596014,62.8305982 64.2235374,63.6342478 L69.3857953,41.6883858 C69.9224951,37.8605493 68.2539856,34.2909187 68.3379908,30.5470874 C68.4499978,25.5086427 66.6784216,18.4708746 62.8253836,14.5608997 C57.8168074,9.67366436 48.6397071,7.69300865 42.3141163,3.73356401 C43.7515384,6.5365372 45.1880272,9.34044377 46.6254493,12.143417 Z" id="Fill-1" fill="#493223"></path>
                    <path d="M65.6719513,41.428 L65.6675188,41.4546093 C65.625475,41.6356422 65.5528075,41.7740798 65.4437481,41.8586745 L65.6719513,41.428 Z M65.5111373,38.2467319 C65.6902516,38.5148404 66.0239505,39.2281504 66.3718403,40.1129038 L65.6719513,41.428 L65.6933999,41.3110237 C65.8165226,40.3947201 65.3369633,38.656778 64.7961106,37.1528669 C65.0216539,37.5042962 65.2586855,37.8688476 65.5111373,38.2467319 Z M16.7149346,4.94323875 C19.2622087,6.68128353 25.6595328,7.78963509 28.488499,9.480637 L26.6331474,6.12584516 C27.9762971,8.55452855 29.3185133,10.9822785 30.6625964,13.4100285 C28.019233,11.6067171 21.2260133,10.4810476 18.5817166,8.67680277 C18.9186708,11.5899161 21.7188438,14.5758339 21.4108247,17.4842803 C21.1690765,19.7785554 18.9733671,21.8676626 17.897541,24.1029559 C14.5703918,31.0159265 15.4960984,33.1552473 15.4960984,39.8417104 C15.4960984,39.8701006 15.493678,39.8990235 15.4890712,39.9284556 C15.4022799,40.0702075 15.3234796,40.1567256 15.2512394,40.1811777 C10.4447139,38.8685126 13.6293164,37.1379382 13.6293164,36.1081464 C13.6293164,29.4216833 12.7036098,27.2823625 16.030759,20.3693919 C17.1065851,18.1340986 19.3022945,16.0449913 19.5440427,13.7507163 C19.8520618,10.8422699 17.0518888,7.85635208 16.7149346,4.94323875 Z M40.4473343,5.32907052e-14 C46.7729251,3.95944464 55.9500254,5.94010035 60.9586016,10.8273356 C62.5478654,12.4400842 63.7830064,14.5849697 64.6779107,16.9022004 C64.1239406,16.0427546 63.5072561,15.2528483 62.8253836,14.5608997 C57.8348183,9.69123885 48.7056549,7.7072911 42.382467,3.77620194 Z M34.6239078,0.711243945 C38.6262884,3.18753028 41.7354138,5.27459256 44.7586673,8.40985294 L44.6594406,8.30850439 C45.3147007,9.58688466 45.969978,10.8652479 46.6254493,12.143417 C43.6021959,9.00815657 40.4930704,6.92109429 36.4906898,4.44480796 C37.3428758,7.14604152 38.1950618,9.8463417 39.0472478,12.5475753 C35.0009549,10.4550742 30.9555542,8.36257321 26.9101735,6.26919991 L26.7807399,6.03472286 L26.7807399,6.03472286 L24.7663654,2.39228114 L24.7663654,2.39228114 L37.1804657,8.81401125 C36.3282798,6.11277768 35.4760938,3.41247751 34.6239078,0.711243945 Z" id="Combined-Shape" fill="#311C0F"></path>
                    <path d="M0.0580553689,45.4041225 C6.78568313e-13,45.8932462 6.78568313e-13,46.260089 6.78568313e-13,46.6880137 C6.78568313e-13,53.9629686 5.34565384,59.8319852 11.9115826,59.8319852 C12.8994136,59.8319852 13.6546895,59.0372177 13.6546895,57.9980053 L13.6546895,35.3781392 C13.6546895,34.3388098 12.8993024,33.5441592 11.9115826,33.5441592 C8.65770152,33.5441592 5.69431971,34.9502144 3.54438037,37.3345171 C1.62699615,39.4129419 0.348665865,42.1640873 0.0580553689,45.2818415 C0.0580553689,45.2818415 0.0580553689,45.3430405 0.0580553689,45.4041225 Z" id="Path" fill="#808A95" fill-rule="nonzero"></path>
                    <path d="M0.0439340606,45.6816625 C0.00485620691,46.129734 0.00485620691,46.4657877 0.00485620691,46.8577967 C0.00485620691,53.5221643 3.60308808,58.8985942 8.02270351,58.8985942 C8.68762592,58.8985942 9.19601232,58.1705316 9.19601232,57.2185403 L9.19601232,36.4971603 C9.19601232,35.5450618 8.68755105,34.8171063 8.02270351,34.8171063 C5.83247215,34.8171063 3.83777979,36.1051513 2.39062655,38.2893393 C1.10000931,40.1933219 0.239547915,42.7135636 0.0439340606,45.5696446 C0.0439340606,45.5696446 0.0439340606,45.6257071 0.0439340606,45.6816625 Z" id="Path-Copy" stroke="#111111" fill-rule="nonzero"></path>
                    <path d="M66.4111832,45.4041225 C66.359518,45.8932462 66.359518,46.260089 66.359518,46.6880137 C66.359518,53.9629686 71.1167704,59.8319852 76.9599808,59.8319852 C77.8390803,59.8319852 78.5112222,59.0372177 78.5112222,57.9980053 L78.5112222,35.3781392 C78.5112222,34.3388098 77.8389813,33.5441592 76.9599808,33.5441592 C74.0642577,33.5441592 71.4270583,34.9502144 69.5137649,37.3345171 C67.8074291,39.4129419 66.6698059,42.1640873 66.4111832,45.2818415 C66.4111832,45.2818415 66.4111832,45.3430405 66.4111832,45.4041225 Z" id="Path" fill="#808A95" fill-rule="nonzero" transform="translate(72.435370, 46.688072) scale(-1, 1) translate(-72.435370, -46.688072) "></path>
                    <path d="M68.8539413,45.4041225 C68.8127063,45.8932462 68.8127063,46.260089 68.8127063,46.6880137 C68.8127063,53.9629686 72.6095637,59.8319852 77.2731457,59.8319852 C77.9747724,59.8319852 78.5112222,59.0372177 78.5112222,57.9980053 L78.5112222,35.3781392 C78.5112222,34.3388098 77.9746934,33.5441592 77.2731457,33.5441592 C74.9620117,33.5441592 72.8572106,34.9502144 71.3301732,37.3345171 C69.9683128,39.4129419 69.0603532,42.1640873 68.8539413,45.2818415 C68.8539413,45.2818415 68.8539413,45.3430405 68.8539413,45.4041225 Z" id="Path-Copy" stroke="#111111" fill-rule="nonzero" transform="translate(73.661964, 46.688072) scale(-1, 1) translate(-73.661964, -46.688072) "></path>
                    <polygon id="Path-17" fill-opacity="0.347601617" fill="#8E6901" points="43.4026817 15.4009516 50.4188616 23.779358 57.8681806 25.6377199"></polygon>
                    <polygon id="Path-17" fill-opacity="0.347601617" fill="#000000" opacity="0.420107887" points="33.6000145 3.70303132 48.9925381 21.6557415 65.3353087 25.6377199"></polygon>
                    <path d="M24.3857995,15.2459941 C28.8194067,18.5766686 33.1093046,22.107772 37.6866213,25.2380177 C44.9367271,30.1960781 17.3385515,-0.687638693 24.3857995,13.6105546 C26.3373144,17.569992 17.8836917,15.2653624 25.5251928,17.666977" id="Path-18" fill="#60422F"></path>
                </g>
            </g>
        </g>
    </g>
</svg>